# xmcd
#
# Track frame offsets:
#	182
#	21700
#	37992
#	52210
#	69362
#	91062
#	113147
#	135525
#	153137
#	168330
#	192722
#	213885
#	232990
#
# Disc length: 3325 seconds
#
# Revision: 0
# Processed by: cddbd v1.5.2PL0 Copyright (c) Steve Scherf et al.
# Submitted via: EasyCDDAExtractor 16.0.6.1
#
DISCID=ad0cfb0d
DTITLE=Γενίτσαρης Μιχάλης-Ναλμπάντη Μαρία - Σαλταδόρος-Γενίτσαρης Μ.-Βρέμη 17-
DTITLE=5-1990
DYEAR=1991
DGENRE=Ρεμπέτικη
TTITLE0=Γενίτσαρης Μιχάλης-Ναλμπάντη Μαρία - Σαλταδόρος [1941-42, Μ. Γενίτσαρη
TTITLE0=]
TTITLE1=Γενίτσαρης Μιχάλης-Ναλμπάντη Μαρία - Επιδρομή στον Πειραιά [1944, Μ. Γ
TTITLE1=ενίτσαρη]
TTITLE2=Γενίτσαρης Μιχάλης-Ναλμπάντη Μαρία - Οι μαυραγορίτες [1942, Μ. Γενίτσα
TTITLE2=ρη]
TTITLE3=Γενίτσαρης Μιχάλης-Ναλμπάντη Μαρία - Οι λαδάδες [1943, Μ. Γενίτσαρη]
TTITLE4=Γενίτσαρης Μιχάλης-Ναλμπάντη Μαρία - Στέλιος Καλδάρας [1944, Μ. Γενίτσ
TTITLE4=αρη]
TTITLE5=Γενίτσαρης Μιχάλης-Ναλμπάντη Μαρία - Άρης Βελουχιώτης [1945, Νίκ. Μάθε
TTITLE5=ση-Μ. Γενίτσαρη]
TTITLE6=Γενίτσαρης Μιχάλης-Ναλμπάντη Μαρία - Με πιάσαν επί Μεταξά [1938, Μ. Γε
TTITLE6=νίτσαρη]
TTITLE7=Προσεχώς-Γενίτσαρης Μιχ.-Ναλμπάντη Μ. - Τι τα θέλεις τα λεφτά [Βασ. Πα
TTITLE7=παδόπουλου-Γ. Παπαϊωάννου]
TTITLE8=Γενίτσαρης Μιχάλης-Ναλμπάντη Μαρία - Μέσ' στην φυλακή που μπήκα [Μ. Γε
TTITLE8=νίτσαρη]
TTITLE9=Γενίτσαρης Μιχάλης-Ναλμπάντη Μαρία - Εγώ καλά καθόμουνα [Μ. Γενίτσαρη]
TTITLE10=Γενίτσαρης Μιχάλης-Ναλμπάντη Μαρία - Ωραία Θεσαλονικιά [1976, Μ. Γενί
TTITLE10=τσαρη]
TTITLE11=Γενίτσαρης Μιχάλης-Ναλμπάντη Μαρία - Καραντουζένι κούρτισα 
TTITLE12=Γενίτσαρης Μιχάλης-Ναλμπάντη Μαρία - Εγώ μάγκας φαινόμουνα
EXTD=
EXTT0=
EXTT1=
EXTT2=
EXTT3=
EXTT4=
EXTT5=
EXTT6=
EXTT7=
EXTT8=
EXTT9=
EXTT10=
EXTT11=
EXTT12=
PLAYORDER=
